# xmcd
#
# Track frame offsets: 
#        150
#        24681
#        49155
#        75783
#        88952
#        123217
#        145715
#        169024
#        185853
#        212082
#        232320
#        269337
#        288223
#
# Disc length: 4089 seconds
#
# Revision: 0
# Processed by: cddbd v1.5.2PL0 Copyright (c) Steve Scherf et al.
# Submitted via: ExactAudioCopy v1.0b1
#
DISCID=b90ff70d
DTITLE=Eldkvarn - Sånger Från Nedergården (Rem and Exp 2010)
DYEAR=1994
DGENRE=Rock
TTITLE0=In Från Regnet
TTITLE1=Förgiftat Blod
TTITLE2=När Mörkrets Hjärta Slår
TTITLE3=Tempel Av Alkohol
TTITLE4=Månen Och Solen
TTITLE5=Peggie Med Trumman
TTITLE6=En Man Av Hjärtat
TTITLE7=Ännu En Kyss Av Elden
TTITLE8=Vilken Dag Som Helst
TTITLE9=Vänner
TTITLE10=Vid Världens Ände
TTITLE11=Ikväll Stannar Jag Hos Dig (duett med Ebba Forsberg)
TTITLE12=Gjord Av Lust (Bonus)
EXTD=
EXTT0=
EXTT1=
EXTT2=
EXTT3=
EXTT4=
EXTT5=
EXTT6=
EXTT7=
EXTT8=
EXTT9=
EXTT10=
EXTT11=
EXTT12=
PLAYORDER=
